<?xml version="1.0" encoding="UTF-8" standalone="no"?>
<svg width="22px" height="24px" viewBox="0 0 22 24" version="1.1" xmlns="http://www.w3.org/2000/svg" xmlns:xlink="http://www.w3.org/1999/xlink" xmlns:sketch="http://www.bohemiancoding.com/sketch/ns">
    <!-- Generator: Sketch 3.4.4 (17249) - http://www.bohemiancoding.com/sketch -->
    <title>Shape + Shape + Shape</title>
    <desc>Created with Sketch.</desc>
    <defs></defs>
    <g id="Page-1" stroke="none" stroke-width="1" fill="none" fill-rule="evenodd" sketch:type="MSPage">
        <g id="Artboard-18-Copy" sketch:type="MSArtboardGroup" fill="#FFFFFF">
            <g id="Shape-+-Shape-+-Shape" sketch:type="MSLayerGroup">
                <path d="M5.14576959,20.5583 L4.67140092,20.5583 C4.54396313,20.8583 3.3700553,23.8583 3.36407373,23.9583 L3.86196313,23.9583 C3.97581567,23.6583 4.08784332,23.3609 4.20017512,23.0757 C4.24174194,22.9701 4.24214747,22.958 4.35437788,22.9578 C4.72036866,22.9573 5.08635945,22.9517 5.45235023,22.9524 C5.48540092,22.9524 5.518553,22.9545 5.55738249,22.9576 C5.68188018,23.2807 5.80526267,23.5994 5.92905069,23.9207 C6.09470968,23.9207 6.24759447,23.9202 6.40047926,23.9196 C6.41619355,23.9195 6.43190783,23.9034 6.46465438,23.8971 C6.02272811,22.782 5.58374194,21.6583 5.14576959,20.5583 M4.42696774,22.4545 C4.58147465,22.0501 4.73517051,21.648 4.88886636,21.2458 C4.89829493,21.2454 4.9077235,21.2451 4.91715207,21.2447 C5.06770507,21.6453 5.21815668,22.0458 5.36860829,22.4464 C5.27645161,22.4802 4.58188018,22.4865 4.42696774,22.4545 M21.9240645,23.9136 L20.0936037,23.9136 L20.0936037,20.5801 L21.9246728,20.5801 L21.9246728,21.307 C21.5950783,21.3289 21.2645714,21.3054 20.9268664,21.3202 L20.9268664,21.8514 L21.9256866,21.8514 L21.9256866,22.5973 C21.5941659,22.6036 21.26447,22.5963 20.9266636,22.6014 L20.9266636,23.1787 C21.2551429,23.1881 21.5851429,23.1774 21.9240645,23.1849 L21.9240645,23.9136 L21.9240645,23.9136 Z M3.25143779,21.4223 C3.05364055,21.4223 2.87946544,21.4202 2.70529032,21.4236 C2.64892166,21.4247 2.621447,21.392 2.59052535,21.3573 C2.19736406,20.916 1.46213825,20.8719 1.00277419,21.2405 C0.706635945,21.4781 0.539760369,21.7864 0.519788018,22.1634 C0.497889401,22.5761 0.625935484,22.9355 0.948129032,23.2111 C1.47714286,23.6635 2.2463318,23.5871 2.68116129,23.0427 C2.75963134,22.9445 2.82836866,22.8401 2.88494009,22.7057 L1.36937327,22.7057 C1.34737327,22.545 1.36024885,22.3966 1.35974194,22.2395 L3.45917051,22.2395 C3.45187097,22.3137 3.44791705,22.3834 3.43798157,22.4524 C3.36741935,22.942 3.16587097,23.3643 2.75435945,23.6623 C1.82265438,24.3371 0.333041475,23.9583 0.0453179724,22.6215 C-0.155926267,21.6863 0.339023041,20.9511 1.0241659,20.6598 C1.65263594,20.3927 2.27309677,20.4387 2.83252535,20.8645 C3.01663594,21.0045 3.14863594,21.1888 3.25143779,21.4223 M14.9177235,23.4443 C14.8618618,23.5972 14.8057972,23.7505 14.7469954,23.9112 L13.8398249,23.9112 C14.2734378,22.7972 14.7044147,21.69 15.1370138,20.5786 L15.821447,20.5786 C16.2513088,21.6826 16.6836037,22.7927 17.1204608,23.9144 L16.2046728,23.9144 C16.1505346,23.7626 16.0946728,23.606 16.0370876,23.4443 L14.9177235,23.4443 L14.9177235,23.4443 Z M15.4940829,21.7213 L15.4645806,21.7231 C15.359447,22.0565 15.2543134,22.3898 15.1458341,22.7338 L15.8085714,22.7338 C15.7018157,22.3899 15.5978986,22.0557 15.4940829,21.7213 L15.4940829,21.7213 Z M7.20941014,23.9151 L6.757447,23.9151 C6.7296682,23.8203 6.71800922,20.8387 6.74457143,20.577 C6.85893088,20.5641 6.97714286,20.5732 7.0944424,20.5714 C7.21336406,20.5697 7.3323871,20.571 7.46722581,20.571 C7.79073733,21.4214 8.11384332,22.2709 8.43694931,23.1204 C8.44617512,23.12 8.4555023,23.1197 8.46472811,23.1193 C8.78641475,22.2732 9.10820276,21.427 9.43120737,20.5775 L10.1349032,20.5775 C10.1615668,20.6684 10.1721106,23.681 10.1462581,23.9089 L9.6962212,23.9089 C9.69317972,22.9736 9.71558525,22.0407 9.70909677,21.1044 C9.33661751,22.0361 8.98512442,22.9739 8.62531797,23.913 L8.27037788,23.913 C7.91564055,22.9758 7.56070046,22.0384 7.20586175,21.1009 C7.19694009,21.1026 7.18801843,21.1042 7.17909677,21.1061 C7.18913364,22.0382 7.19917051,22.9705 7.20941014,23.9151 M14.0090323,21.8472 L13.8700369,21.8472 C13.6657512,21.8472 13.4612627,21.8429 13.2571797,21.8491 C13.1626912,21.852 13.10247,21.8276 13.0502581,21.7439 C12.9351889,21.5592 12.7708479,21.4292 12.5545991,21.3714 C11.9104147,21.1992 11.3109401,21.7596 11.4480092,22.4053 C11.5309401,22.7964 11.8184608,23.0867 12.1909401,23.1437 C12.5242857,23.1947 12.7977143,23.0752 12.9961198,22.8146 C13.0778341,22.7072 13.1595484,22.6678 13.2906359,22.675 C13.4772811,22.6855 13.6649401,22.6777 13.8522949,22.6778 L13.9793272,22.6778 C13.9831797,22.6995 13.9897696,22.7123 13.9866267,22.7222 C13.7789954,23.3869 13.3511613,23.8284 12.6450323,23.9576 C11.6788571,24.1346 10.8112258,23.5476 10.6100829,22.5986 C10.4285069,21.7423 10.8830046,20.9066 11.7066359,20.6134 C12.6482765,20.2782 13.6814654,20.7317 13.9955484,21.7746 C14.0003134,21.7904 14.0016313,21.8069 14.0090323,21.8472 M18.9363226,22.7793 C19.2110691,23.1606 19.4757788,23.528 19.7520461,23.9113 C19.6949677,23.9152 19.6625253,23.9193 19.6300829,23.9194 C19.370341,23.9199 19.1105991,23.9162 18.8509585,23.9215 C18.7639724,23.9235 18.7125714,23.8972 18.66847,23.8216 C18.5010876,23.534 18.3268111,23.2502 18.1548664,22.9653 C18.1421935,22.9443 18.1276959,22.9243 18.1043779,22.8892 C18.0681843,22.9829 18.0882581,23.0646 18.0849124,23.1435 C18.0811613,23.2274 18.0838986,23.3115 18.0838986,23.3955 L18.0838986,23.6476 L18.0838986,23.8961 C17.98647,23.9251 17.4082857,23.9302 17.2605714,23.9041 L17.2605714,20.5805 C17.3004147,20.577 17.3333641,20.5715 17.366212,20.5715 C17.7409217,20.5712 18.1157327,20.5694 18.4904424,20.5735 C18.6091613,20.5747 18.7286912,20.5858 18.8460922,20.6037 C19.3040369,20.6736 19.5940922,21.0317 19.666682,21.399 C19.7130138,21.6336 19.7108848,21.8671 19.6371797,22.0964 C19.5400553,22.3983 19.3450968,22.6133 19.0461198,22.7339 C19.0150968,22.7462 18.9842765,22.7594 18.9363226,22.7793 L18.9363226,22.7793 Z M18.0909954,22.0984 C18.2524977,22.1297 18.5063594,22.1117 18.6278157,22.063 C18.790129,21.9981 18.8594747,21.8844 18.8537972,21.6939 C18.8483226,21.5204 18.7740092,21.4151 18.6118986,21.3629 C18.4434009,21.3087 18.2707465,21.3189 18.0909954,21.3292 L18.0909954,22.0984 L18.0909954,22.0984 Z" id="Shape" sketch:type="MSShapeGroup"></path>
                <path d="M10.1703871,-2.52837675e-14 L10.1703871,3.1141 C10.3263134,3.1052 10.4659171,3.0974 10.6054194,3.0893 C11.7999078,3.0204 12.989023,3.0684 14.1711429,3.255 C15.1815207,3.4145 16.1508387,3.7104 17.0875115,4.1145 C17.3877051,4.2441 17.691447,4.3659 17.9897143,4.4994 C18.1488848,4.5706 18.2963963,4.6645 18.4184608,4.7914 C18.6824608,5.0663 18.6250783,5.4199 18.2871705,5.6011 C18.1228295,5.6893 17.9428756,5.7245 17.7597788,5.7379 C17.3869954,5.765 17.0274931,5.7154 16.7009401,5.5226 C15.9359078,5.0712 15.1021382,4.7981 14.2405899,4.599 C13.135318,4.3436 12.0146359,4.2433 10.8805714,4.2935 C10.6513456,4.3037 10.4225253,4.3237 10.1977604,4.3389 C10.1657235,4.4384 10.1529493,14.1261 10.1829585,14.3622 C10.2494654,14.3695 10.3197235,14.3796 10.3902857,14.3849 C11.3060737,14.4531 12.21953,14.4386 13.1310599,14.3208 C13.8892995,14.2228 14.6320276,14.0628 15.3534654,13.8113 C15.925871,13.612 16.4717143,13.3591 16.9709217,13.0147 C17.0074194,12.9896 17.0421935,12.9622 17.0777788,12.9357 C17.0750415,12.9263 17.0721014,12.9169 17.0692627,12.9073 C16.9356406,12.8997 16.8017143,12.8838 16.6681935,12.8858 C16.3830046,12.8902 16.0979171,12.9017 15.8129309,12.9145 C15.3961475,12.9333 14.9795668,12.9668 14.5621751,12.9287 C14.2749585,12.9022 13.9936221,12.8503 13.7606452,12.669 C13.6621014,12.5923 13.5677143,12.5002 13.5001935,12.3967 C13.3133456,12.1107 13.3882673,11.761 13.665447,11.5576 C13.8189401,11.4449 13.9962581,11.3864 14.1792535,11.3431 C14.500129,11.2673 14.8277972,11.244 15.1556682,11.2448 C15.564341,11.2459 15.9731152,11.2635 16.3816866,11.274 C16.5562673,11.2785 16.7306452,11.288 16.9052258,11.2871 C17.9143871,11.2822 18.9236498,11.2741 19.9330138,11.2688 C20.2781198,11.267 20.6237327,11.2725 20.9632627,11.3414 C21.0960737,11.3683 21.2288848,11.4048 21.3539908,11.4556 C21.7145069,11.602 21.9656313,11.9147 21.8751982,12.3837 C21.8298802,12.6182 21.7643871,12.8493 21.7007189,13.0799 C21.4544608,13.971 21.2042488,14.861 20.9582949,15.7521 C20.8968571,15.9748 20.8493088,16.201 20.7892903,16.4242 C20.6788848,16.8347 20.3894378,17.0565 19.9824885,17.1399 C19.4835853,17.2423 19.0181382,17.148 18.5881751,16.8818 C18.527447,16.8442 18.4728018,16.7957 18.419576,16.7475 C18.1931889,16.543 18.1132995,16.2881 18.1695668,15.9938 C18.1938986,15.8665 18.2292811,15.7402 18.2700369,15.6168 C18.3793272,15.2854 18.4948018,14.956 18.6065253,14.6255 C18.6233548,14.5757 18.6338986,14.5237 18.6550876,14.4425 C17.3550599,15.1962 15.987106,15.6803 14.5447373,15.9655 C13.1039908,16.2507 11.6502673,16.3225 10.1751521,16.2013 L10.1751521,18.8981 C10.1203041,18.9006 10.0754931,18.9044 10.0307834,18.9044 C9.50268203,18.9048 8.97458065,18.9047 8.44637788,18.9047 C6.26158525,18.9047 4.07679263,18.904 1.892,18.9055 C1.59342857,18.9057 1.30600922,18.8601 1.03795392,18.7278 C0.469400922,18.4469 0.130682028,17.9947 0.0207834101,17.3773 C0.00902304147,17.3118 0.0101382488,17.2433 0.0101382488,17.1762 C0.00973271889,12.0302 0.0117603687,6.8841 0.00729953917,1.738 C0.00658986175,1.0577 0.519990783,0.1953 1.50938249,0.0242 C1.609447,0.0069 1.71265438,0.001 1.81434101,0.001 C4.54862673,-0.0002 7.28281106,-2.52837675e-14 10.0171982,-2.52837675e-14 L10.1703871,-2.52837675e-14 L10.1703871,-2.52837675e-14 Z M10.1595392,14.3709 C10.1018525,14.3623 10.0521751,14.3532 10.0021935,14.3478 C9.27629493,14.2681 8.56590783,14.1184 7.87265438,13.891 C7.05541014,13.6226 6.28632258,13.2597 5.58820276,12.7585 C5.04043318,12.3652 4.54872811,11.9161 4.17006452,11.3564 C3.63861751,10.5707 3.43909677,9.711 3.5883318,8.7765 C3.70086636,8.0717 4.02042396,7.4625 4.49266359,6.9295 C5.10937327,6.2335 5.85331797,5.6995 6.69215668,5.2949 C7.63298618,4.8411 8.63129954,4.5682 9.66317051,4.4078 C9.82659908,4.3824 9.99094009,4.3622 10.1521382,4.3399 C10.1792074,4.1963 10.1733272,3.2209 10.1445346,3.1253 C10.1040829,3.1276 10.0619078,3.1281 10.0202396,3.1327 C9.7622212,3.1613 9.50369585,3.1869 9.24628571,3.2207 C8.09782488,3.3712 6.9815023,3.6399 5.9075576,4.0783 C4.55511521,4.6305 3.37482028,5.4154 2.41878341,6.5175 C1.7356682,7.3049 1.33581567,8.2108 1.24599078,9.2429 C1.15200922,10.3228 1.41499539,11.322 2.01274654,12.2277 C2.52989862,13.0112 3.19790783,13.655 3.97591705,14.188 C4.87568664,14.8042 5.86122581,15.2447 6.90151152,15.5711 C7.80888479,15.8558 8.7380553,16.0417 9.68334562,16.1503 C9.83856221,16.1681 9.9943871,16.1805 10.1595392,16.1964 L10.1595392,14.3709 L10.1595392,14.3709 Z" id="Shape" sketch:type="MSShapeGroup"></path>
            </g>
        </g>
    </g>
</svg>